<svg version="1.1" id="Layer_1" xmlns="http://www.w3.org/2000/svg" xmlns:xlink="http://www.w3.org/1999/xlink" x="0px" y="0px"
	 width="100%" viewBox="0 0 1000 200" enable-background="new 0 0 1000 200" xml:space="preserve">
<path fill="#FFFFFF" opacity="1.000000" stroke="none" 
	d="
M1001.000000,82.000000 
	C1001.000000,89.020950 1001.000000,96.041893 1000.647156,103.546936 
	C986.383545,114.473022 972.472778,124.915016 958.011902,135.769897 
	C967.076538,142.746521 975.002502,148.953461 983.046997,155.002747 
	C988.950806,159.442261 995.010010,163.675079 1001.000000,168.000000 
	C1001.000000,178.995514 1001.000000,189.991043 1001.000000,200.960403 
	C667.666687,200.960403 334.333344,200.960403 1.000000,200.960403 
	C1.000000,187.259644 1.000000,173.598480 1.356274,159.477005 
	C9.101759,164.336868 16.490971,169.657028 24.586779,175.485947 
	C25.002052,164.840088 27.992931,154.493378 15.815431,149.170624 
	C15.099334,148.857620 14.650494,147.982697 13.970410,147.529724 
	C9.663718,144.661285 5.326891,141.838104 1.000002,139.000000 
	C1.000000,137.285645 1.000000,135.571289 1.355338,133.413727 
	C9.107125,127.473869 16.512600,121.989227 23.879164,116.452805 
	C24.356607,116.093971 24.803564,115.339783 24.810266,114.764198 
	C24.878317,108.920456 24.851824,103.075623 24.851824,96.316666 
	C22.806244,97.501556 21.812756,97.971764 20.934557,98.602486 
	C14.276998,103.383965 7.642021,108.196884 1.000001,113.000000 
	C1.000000,105.979050 1.000000,98.958107 1.348469,91.438980 
	C12.284242,82.881363 22.871546,74.821915 33.735088,66.552185 
	C32.035568,64.749794 31.251633,63.663300 30.234316,62.879864 
	C22.101738,56.616974 13.956214,50.369617 5.731022,44.229538 
	C4.362086,43.207630 2.587262,42.729443 1.000000,42.000000 
	C1.000000,28.338814 1.000000,14.677627 1.000000,1.041200 
	C334.333344,1.041200 667.666687,1.041200 1001.000000,1.041200 
	C1001.000000,17.409161 1001.000000,33.735924 1000.652771,50.500748 
	C989.859497,42.990082 979.413391,35.041348 967.985657,26.345644 
	C967.985657,31.023489 968.393066,34.520790 967.898376,37.885464 
	C966.958557,44.277950 969.428406,48.234653 974.810547,51.694763 
	C981.258850,55.840267 987.025085,61.046768 993.601501,66.196938 
	C986.319336,71.787346 979.585693,76.837906 973.006653,82.082489 
	C971.126099,83.581635 968.504028,85.508034 968.281189,87.472115 
	C967.641357,93.112007 968.055664,98.871475 968.055664,105.871620 
	C975.328369,100.300903 981.386841,95.493134 987.628662,90.936676 
	C991.954956,87.778580 996.533936,84.966621 1001.000000,82.000000 
M247.903641,160.557312 
	C254.176743,165.468933 260.449860,170.380554 267.617523,175.992599 
	C268.077911,164.632980 270.549438,154.707321 258.654419,148.769440 
	C252.782776,145.838348 248.069687,140.586411 242.109711,135.804840 
	C247.167572,131.859344 251.603500,128.481537 255.945831,124.987419 
	C259.920624,121.789024 265.688049,119.171150 267.236481,115.018753 
	C269.203369,109.744194 267.712463,103.180229 267.712463,95.666992 
	C249.637497,109.644554 232.864151,122.615555 215.670151,135.911850 
	C226.583572,144.278030 236.943344,152.219818 247.903641,160.557312 
M152.480423,61.004543 
	C154.349365,62.545433 156.218307,64.086327 158.747345,66.171440 
	C153.834091,70.055122 149.427048,73.476204 145.090729,76.984688 
	C141.117264,80.199593 135.320435,82.798737 133.766800,86.955009 
	C131.793579,92.233673 133.289322,98.809052 133.289322,106.361656 
	C151.221893,92.434937 167.840729,79.528488 185.197922,66.048615 
	C167.469833,52.390724 150.825287,39.567616 133.039032,25.864912 
	C133.039032,32.514420 132.729401,37.349445 133.176483,42.113461 
	C133.383774,44.322369 134.538528,47.003254 136.174698,48.412571 
	C141.191071,52.733395 146.648331,56.542355 152.480423,61.004543 
M904.041260,101.502312 
	C889.583435,112.770859 875.125549,124.039406 859.843018,135.950714 
	C877.420776,149.515701 894.067871,162.362473 911.961121,176.170914 
	C911.961121,169.992783 911.761169,165.550095 912.022583,161.134750 
	C912.243225,157.408798 910.915771,155.037079 907.856873,152.819336 
	C900.669556,147.608429 893.804565,141.952957 886.108215,135.928757 
	C891.186035,131.922928 895.600708,128.508957 899.937500,124.998802 
	C903.908813,121.784378 909.691284,119.173561 911.243530,115.015488 
	C913.213562,109.738556 911.720154,103.168633 911.720154,96.058952 
	C908.576355,98.236328 906.575012,99.622429 904.041260,101.502312 
M721.677246,145.830414 
	C734.404358,155.634125 747.131470,165.437836 760.957092,176.087738 
	C760.957092,168.993561 761.156738,163.679184 760.833862,158.396759 
	C760.738647,156.839401 759.468262,155.024292 758.211121,153.931870 
	C754.965210,151.111206 751.403687,148.656418 748.009399,146.002884 
	C743.906311,142.795288 739.845520,139.533615 734.764709,135.500107 
	C736.636841,134.235992 737.784180,133.542526 738.842896,132.733109 
	C745.293884,127.801292 751.768188,122.897758 758.123718,117.845123 
	C759.318604,116.895195 760.742310,115.353264 760.811523,114.019707 
	C761.108215,108.303749 760.938049,102.563553 760.938049,95.549248 
	C743.163330,109.318787 726.392639,122.310562 708.936646,135.833176 
	C713.615601,139.532516 717.347595,142.483124 721.677246,145.830414 
M534.550659,118.020714 
	C527.064331,123.914032 519.578003,129.807358 511.760529,135.961349 
	C529.096313,149.327011 545.910950,162.290939 563.379822,175.759232 
	C564.672485,164.202042 565.947815,154.056656 554.131775,148.592392 
	C553.247009,148.183258 552.494629,147.465836 551.721191,146.841614 
	C547.293640,143.268372 542.878296,139.679947 537.948303,135.682800 
	C545.006226,130.267319 551.231812,125.624878 557.291016,120.774498 
	C559.682495,118.860130 563.194336,116.724564 563.593323,114.267113 
	C564.528625,108.506294 563.892456,102.490334 563.892456,95.620766 
	C553.702881,103.387672 544.401794,110.477356 534.550659,118.020714 
M409.997375,122.491264 
	C412.951080,119.892830 417.712219,117.729622 418.465515,114.601326 
	C419.845276,108.871597 418.858459,102.571983 418.858459,95.518898 
	C400.969086,109.373703 384.034637,122.488937 366.705505,135.909851 
	C384.051300,149.290863 400.868561,162.264160 418.507568,175.871399 
	C419.401123,164.366470 421.186462,154.091766 409.205383,148.657135 
	C408.320435,148.255737 407.584015,147.510681 406.807526,146.889130 
	C402.353088,143.323364 397.907349,139.746613 392.923767,135.743973 
	C399.023254,131.038986 404.247253,127.009323 409.997375,122.491264 
M403.539948,85.012138 
	C411.496216,78.907349 419.452484,72.802567 428.184937,66.102211 
	C410.522858,52.464443 393.883453,39.616310 376.636047,26.298717 
	C376.278229,28.227005 376.086823,28.848034 376.057434,29.476637 
	C375.282898,46.039936 375.313629,46.002193 388.859100,55.954067 
	C393.067291,59.045837 397.079773,62.403992 401.859192,66.174576 
	C394.940613,71.573105 388.655792,76.379021 382.493195,81.336845 
	C380.218536,83.166809 376.760864,85.126244 376.404083,87.424324 
	C375.520050,93.117928 376.113739,99.040970 376.113739,104.871841 
	C376.612732,104.996643 377.111725,105.121445 377.610718,105.246246 
	C386.079285,98.664764 394.547852,92.083290 403.539948,85.012138 
M881.457764,76.983971 
	C879.055725,78.752541 876.559875,80.409485 874.281006,82.324631 
	C872.427551,83.882210 869.581970,85.603630 869.360718,87.506447 
	C868.703674,93.156418 869.125366,98.931847 869.125366,104.658234 
	C869.580383,104.894699 870.035400,105.131165 870.490356,105.367622 
	C887.101196,92.526756 903.711975,79.685883 921.244934,66.132126 
	C903.760986,52.628910 887.026550,39.704559 869.872864,26.456383 
	C867.071045,40.869648 868.485657,45.003296 878.416565,52.973934 
	C883.658325,57.181038 888.941345,61.336788 894.890076,66.058983 
	C890.135498,69.902733 886.058533,73.198685 881.457764,76.983971 
M527.330872,45.447338 
	C535.556946,52.235939 543.782959,59.024540 552.223206,65.989906 
	C551.041687,67.257072 550.263977,68.343475 549.254150,69.133133 
	C542.862000,74.131561 536.364502,78.996918 530.036743,84.074493 
	C528.743958,85.111862 527.265686,86.818687 527.176819,88.295433 
	C526.840820,93.876083 527.041687,99.489059 527.041687,106.456406 
	C544.795288,92.666885 561.615234,79.602493 579.071899,66.043579 
	C561.386658,52.421165 544.751587,39.607651 527.102051,26.012714 
	C527.102051,33.376205 527.102051,39.011692 527.330872,45.447338 
M694.902039,63.544807 
	C698.745728,66.378349 695.676819,67.998550 693.706360,69.544220 
	C687.320007,74.553909 680.794373,79.386429 674.429810,84.422997 
	C673.364685,85.265900 672.215454,86.759346 672.163452,87.996613 
	C671.923523,93.713936 672.057617,99.446960 672.057617,106.446510 
	C689.819397,92.655472 706.572937,79.647232 724.064697,66.065842 
	C706.489807,52.508423 689.845398,39.668758 672.030518,25.926163 
	C672.030518,32.237747 671.612000,36.898258 672.190002,41.431709 
	C672.528137,44.083969 673.833435,47.257622 675.786560,48.938576 
	C681.676819,54.008121 688.097168,58.461792 694.902039,63.544807 
M851.075256,84.556091 
	C858.847900,78.544052 866.620605,72.532013 875.014526,66.039444 
	C857.390259,52.463593 840.749207,39.645065 823.025208,25.992332 
	C823.025208,29.347448 823.234375,31.014828 822.990906,32.613266 
	C821.553528,42.050583 824.162598,49.118717 833.126099,53.996128 
	C838.637756,56.995239 843.198975,61.741024 848.773438,66.168350 
	C840.693237,72.488564 833.238953,78.219017 825.930786,84.130089 
	C824.650879,85.165329 823.253296,86.915924 823.165161,88.410126 
	C822.837891,93.961388 823.034607,99.543533 823.034607,106.352745 
	C832.820435,98.754700 841.671753,91.882294 851.075256,84.556091 
M73.977638,166.443420 
	C75.626038,158.262482 72.080132,152.748245 65.037643,149.028748 
	C64.890533,148.951065 64.731621,148.886658 64.602570,148.785110 
	C59.328995,144.635315 54.058220,140.481979 47.673939,135.452072 
	C49.581287,134.222702 50.760750,133.570648 51.820473,132.761734 
	C58.278484,127.832191 64.752045,122.920799 71.111176,117.865921 
	C72.308800,116.913940 73.749710,115.381195 73.819260,114.050621 
	C74.117996,108.335289 73.946770,102.595390 73.946770,95.688660 
	C56.217499,109.411835 39.425621,122.409439 21.958241,135.929901 
	C39.585724,149.512192 56.238785,162.343674 73.977585,176.011719 
	C73.977585,171.991135 73.977585,169.687897 73.977638,166.443420 
M497.525635,71.014198 
	C492.271667,75.057983 486.959015,79.029060 481.800812,83.191551 
	C480.325531,84.382019 478.348907,86.057564 478.234039,87.629929 
	C477.808502,93.454170 478.064575,99.328217 478.064575,106.232384 
	C495.812744,92.486336 512.599731,79.484749 529.899475,66.085983 
	C512.347778,52.545837 495.766998,39.754681 478.008759,26.055202 
	C478.008759,31.570683 478.349762,35.684177 477.921387,39.715916 
	C477.400146,44.621296 479.284485,47.555984 483.295990,50.327873 
	C490.169617,55.077442 496.539886,60.555458 503.629211,66.126587 
	C501.378967,67.923569 499.729004,69.241173 497.525635,71.014198 
M625.412415,84.144775 
	C624.614807,85.529846 623.196960,86.885208 623.128967,88.305229 
	C622.861694,93.885025 623.019592,99.485184 623.019592,106.228355 
	C640.658508,92.594284 657.452332,79.613411 674.917908,66.113312 
	C657.435608,52.625259 640.783752,39.777897 623.008667,26.063965 
	C623.008667,31.675291 623.325439,35.808231 622.925415,39.870586 
	C622.465332,44.542740 624.200562,47.456749 628.007874,50.133163 
	C634.877930,54.962582 641.339294,60.373482 648.812561,66.197075 
	C640.857666,72.281448 633.424377,77.966850 625.412415,84.144775 
M359.540100,81.013100 
	C365.777832,76.210487 372.015564,71.407883 378.937195,66.078728 
	C361.463623,52.601162 344.815857,39.760551 327.016785,26.031933 
	C327.016785,31.656019 327.317078,35.774361 326.938293,39.829262 
	C326.497192,44.551510 328.364655,47.498222 332.147644,50.190113 
	C338.975525,55.048641 345.431610,60.429661 353.225555,66.515961 
	C351.422272,67.731636 350.149841,68.497055 348.978485,69.394417 
	C342.668579,74.228439 336.348236,79.050392 330.120880,83.989204 
	C328.902161,84.955780 327.276978,86.375801 327.207886,87.660286 
	C326.894257,93.490128 327.070557,99.346321 327.070557,106.267525 
	C338.371704,97.506874 348.694183,89.504898 359.540100,81.013100 
M944.453247,143.019394 
	C941.597168,140.856216 938.741028,138.693039 935.537354,136.266586 
	C936.996033,134.736282 937.882141,133.545105 939.011047,132.665482 
	C945.411377,127.678627 951.902893,122.808418 958.276611,117.788307 
	C959.372559,116.925072 960.751526,115.563301 960.804260,114.378563 
	C961.064697,108.535286 960.922791,102.674080 960.922791,95.705688 
	C943.171936,109.470726 926.401367,122.475639 909.034363,135.943039 
	C926.630066,149.510376 943.267090,162.338516 960.979919,175.996185 
	C960.979919,169.500275 961.343689,164.664642 960.823730,159.926010 
	C960.570557,157.618454 959.138428,154.983444 957.415283,153.386749 
	C953.543030,149.798996 949.155762,146.767105 944.453247,143.019394 
M796.298279,145.174667 
	C792.439331,142.220505 788.580322,139.266342 784.089966,135.828842 
	C791.995850,129.760712 799.130310,124.403236 806.102661,118.842621 
	C807.678711,117.585709 809.645691,115.700729 809.787964,113.969696 
	C810.254272,108.295288 809.963074,102.558617 809.963074,95.758858 
	C792.244934,109.468651 775.460754,122.455788 758.051086,135.926895 
	C775.610657,149.457718 792.257080,162.284943 809.320923,175.433792 
	C811.802124,159.716080 810.815308,157.126373 799.480652,147.918762 
	C798.578735,147.186127 797.756775,146.355072 796.298279,145.174667 
M813.690857,56.836063 
	C800.831665,46.848927 787.972473,36.861790 774.002441,26.011908 
	C774.002441,31.883495 774.395569,36.209484 773.894897,40.429420 
	C773.364807,44.897095 775.356628,47.449902 778.648132,49.882267 
	C785.534241,54.970879 792.236694,60.307827 799.273315,65.742615 
	C798.323853,66.854485 797.804443,67.715538 797.063293,68.291039 
	C790.649780,73.271370 784.146912,78.138153 777.791565,83.190804 
	C776.310425,84.368393 774.341858,86.056427 774.227051,87.628571 
	C773.801758,93.453186 774.057739,99.327538 774.057739,106.200600 
	C791.785583,92.468681 808.567444,79.469521 825.732910,66.173241 
	C821.323669,62.693039 817.822693,59.929745 813.690857,56.836063 
M106.320625,128.831009 
	C110.791786,125.401329 115.381538,122.111168 119.669479,118.465981 
	C121.161346,117.197754 122.703522,115.112823 122.843483,113.294708 
	C123.260521,107.877380 122.993134,102.407364 122.993134,95.760323 
	C105.349640,109.445122 88.511871,122.504982 71.197983,135.934143 
	C88.738274,149.462524 105.310074,162.243958 122.998924,175.886917 
	C122.998924,170.367523 122.617653,166.233032 123.095810,162.200455 
	C123.688316,157.203568 121.545296,154.391846 117.622917,151.642853 
	C110.788139,146.852692 104.408981,141.412460 97.444412,135.934479 
	C100.609100,133.335861 103.150291,131.249222 106.320625,128.831009 
M279.279236,85.230614 
	C278.675507,91.828957 278.071777,98.427307 277.468079,105.025650 
	C277.922638,105.188766 278.377197,105.351883 278.831787,105.514999 
	C295.613922,92.524101 312.396057,79.533211 329.765106,66.087982 
	C312.353302,52.657417 295.703369,39.814552 278.000000,26.159100 
	C278.000000,31.223337 278.450653,34.901402 277.900452,38.423092 
	C276.936859,44.590679 279.766022,48.158478 284.555420,51.442749 
	C290.926331,55.811508 296.844727,60.840191 303.643860,66.118149 
	C295.388153,72.556442 287.614319,78.618950 279.279236,85.230614 
M455.085480,46.442654 
	C446.711792,39.932861 438.338104,33.423069 428.997589,26.161663 
	C428.997589,30.875185 429.354065,34.071438 428.924225,37.158195 
	C427.996429,43.820969 430.312927,48.260586 436.108093,51.928677 
	C442.453613,55.945103 448.087006,61.086517 454.573456,66.162361 
	C446.878143,72.133034 439.651550,77.604912 432.611938,83.307655 
	C431.069092,84.557503 429.313660,86.559143 429.171600,88.335762 
	C428.727478,93.888672 429.008514,99.499573 429.008514,106.117622 
	C446.586548,92.508240 463.368011,79.515594 480.693207,66.101967 
	C471.880951,59.314125 463.783539,53.076927 455.085480,46.442654 
M580.451538,31.008596 
	C578.609192,29.732868 576.766846,28.457142 573.997559,26.539587 
	C573.997559,30.614098 574.387085,33.760357 573.919495,36.773617 
	C572.815491,43.888371 575.632141,48.477127 581.586853,52.308933 
	C587.757446,56.279705 593.287170,61.246559 599.558899,66.137886 
	C591.940918,72.087425 584.862366,77.503944 577.936707,83.109337 
	C576.362061,84.383850 574.347839,86.232307 574.205383,87.954681 
	C573.734619,93.645897 574.027893,99.400299 574.027893,106.116280 
	C591.640808,92.469490 608.418945,79.469559 625.658569,66.112030 
	C610.262207,54.183605 595.622070,42.841049 580.451538,31.008596 
M857.965515,155.087097 
	C849.945923,148.806870 841.926392,142.526627 833.369629,135.825714 
	C841.012634,129.885040 848.115723,124.509575 855.021057,118.891106 
	C856.681519,117.540024 858.638794,115.469597 858.811890,113.579147 
	C859.317871,108.053474 858.991821,102.451622 858.991821,95.889030 
	C841.381226,109.505287 824.592773,122.485847 807.266724,135.882111 
	C824.679565,149.335571 841.315674,162.188889 858.562683,175.514236 
	C858.562683,168.115021 858.562683,161.870621 857.965515,155.087097 
M606.101624,168.432770 
	C609.111511,170.579224 612.121338,172.725693 616.002441,175.493454 
	C616.002441,169.931076 615.663513,165.451614 616.101746,161.049515 
	C616.505798,156.990173 614.706360,154.624405 611.744202,152.398636 
	C604.768799,147.157196 597.918701,141.748993 590.764709,136.212296 
	C591.706299,135.121124 592.229858,134.269760 592.968994,133.696198 
	C599.382080,128.719803 605.884216,123.856606 612.236572,118.804703 
	C613.715088,117.628883 615.665100,115.930145 615.779663,114.354385 
	C616.202820,108.531616 615.947998,102.659561 615.947998,95.885780 
	C598.274292,109.590881 581.499756,122.598717 564.400879,135.858093 
	C578.670044,146.996262 592.109802,157.487000 606.101624,168.432770 
M83.974525,103.624763 
	C100.043953,91.254128 116.113373,78.883484 132.658539,66.146606 
	C115.261078,52.713638 98.622612,39.866703 80.981964,26.245968 
	C80.981964,32.426163 81.132263,37.209194 80.928185,41.977058 
	C80.796021,45.064671 81.638481,47.085567 84.311920,49.025627 
	C91.739563,54.415703 98.844330,60.250690 106.509583,66.248680 
	C99.160004,71.880943 92.384804,76.897774 85.838486,82.197365 
	C83.893852,83.771645 81.541603,85.983269 81.213036,88.177872 
	C80.506691,92.895752 80.922684,97.795067 81.098488,102.612114 
	C81.117271,103.126785 82.587524,103.588478 83.974525,103.624763 
M730.963379,81.507477 
	C720.493164,87.202400 726.734619,96.666046 724.839355,104.294739 
	C725.305847,104.564049 725.772278,104.833359 726.238708,105.102669 
	C742.882812,92.235954 759.526917,79.369240 776.685547,66.104790 
	C759.282104,52.682014 742.632751,39.840832 725.007324,26.246862 
	C725.007324,33.284260 724.844849,38.913101 725.127258,44.519524 
	C725.193726,45.839130 726.517212,47.389526 727.677246,48.312042 
	C735.031555,54.160561 742.502441,59.862537 750.567871,66.102539 
	C743.903992,71.308792 737.697144,76.157997 730.963379,81.507477 
M320.004883,105.548561 
	C320.004883,102.828239 320.004883,100.107910 320.004883,95.913887 
	C302.054810,109.806023 285.403778,122.692780 268.334839,135.902969 
	C285.747101,149.341385 302.331940,162.141251 320.004883,175.780853 
	C320.004883,171.563538 319.659424,168.595047 320.072784,165.736313 
	C321.109680,158.565704 318.767334,153.600464 312.412994,149.665543 
	C306.181702,145.806854 300.687042,140.758682 294.348602,135.827652 
	C300.516449,131.109024 305.909271,126.736679 311.560699,122.728981 
	C317.240784,118.700981 321.823669,114.326607 320.004883,105.548561 
M151.700363,109.174927 
	C140.408127,117.996613 129.115875,126.818298 117.447189,135.934067 
	C134.753067,149.301361 151.338684,162.112305 169.018127,175.768158 
	C169.018127,170.739716 168.621719,166.937469 169.108566,163.251892 
	C169.890717,157.330795 167.256012,153.846146 162.589493,150.631287 
	C156.109055,146.166779 150.132584,140.970734 144.001617,136.136154 
	C144.532623,135.287903 144.647537,134.929214 144.892944,134.737976 
	C150.649597,130.251694 156.397232,125.753242 162.197098,121.323219 
	C165.732468,118.622864 169.762802,116.540741 169.118713,110.828354 
	C168.616074,106.370651 169.018066,101.810944 169.018066,96.057343 
	C162.578461,100.991463 157.454834,104.917267 151.700363,109.174927 
M455.913818,148.566727 
	C450.577301,144.492661 445.240784,140.418594 439.302979,135.885483 
	C445.430664,131.184097 450.998535,127.088448 456.355621,122.733543 
	C459.390991,120.266037 463.739380,117.793259 464.553497,114.577766 
	C465.916687,109.193680 464.926025,103.213654 464.926025,95.998322 
	C447.129425,109.755501 430.489899,122.618210 413.321350,135.889893 
	C430.696381,149.296997 447.342255,162.141449 465.004883,175.770462 
	C465.004883,171.922546 464.662506,169.420639 465.067078,167.046005 
	C466.449371,158.932846 463.802612,152.898544 455.913818,148.566727 
M231.978302,43.970127 
	C233.878296,46.258492 235.482513,48.904552 237.734741,50.766953 
	C244.038345,55.979450 250.609741,60.868069 257.374390,66.116417 
	C253.728256,69.004982 250.758331,71.370850 247.774048,73.718491 
	C244.647766,76.177834 241.623169,78.788971 238.343674,81.025108 
	C234.490173,83.652596 231.256790,86.241310 231.878922,91.730606 
	C232.362976,96.001717 231.975739,100.371567 231.975739,106.004784 
	C249.921906,92.132446 266.484283,79.329773 283.558777,66.131233 
	C266.223175,52.743793 249.576721,39.888542 231.976013,26.296375 
	C231.976013,32.822048 231.976013,37.947964 231.978302,43.970127 
M661.528137,118.923035 
	C662.664429,117.523590 664.682678,116.183212 664.781067,114.714249 
	C665.163757,109.000427 664.937012,103.245796 664.937012,96.073898 
	C647.201111,109.805740 630.576111,122.677498 613.496033,135.901596 
	C630.782227,149.260635 647.361938,162.073700 665.023438,175.722809 
	C665.023438,169.239975 665.261169,163.987122 664.893433,158.777023 
	C664.765991,156.972870 663.542725,154.779495 662.122742,153.611618 
	C654.874939,147.650314 647.398865,141.966415 639.526917,135.813599 
	C647.062134,130.041458 654.009644,124.719505 661.528137,118.923035 
M349.297272,140.174438 
	C347.522186,138.806992 345.747070,137.439545 343.589752,135.777634 
	C349.205505,131.496719 354.264740,127.761276 359.183044,123.848679 
	C362.530060,121.186104 367.538086,118.793678 368.495972,115.358246 
	C370.057556,109.757736 368.917603,103.403969 368.917603,96.145935 
	C351.188568,109.856621 334.612305,122.675842 317.523987,135.891006 
	C334.792603,149.227341 351.448730,162.090622 369.017395,175.658691 
	C369.017395,168.644623 369.149353,163.000092 368.912109,157.371140 
	C368.861328,156.167419 367.698059,154.743515 366.660431,153.893097 
	C361.140991,149.369522 355.498413,144.996170 349.297272,140.174438 
M510.637024,153.082962 
	C503.421936,147.399857 496.206848,141.716736 488.616852,135.738327 
	C494.263885,131.446304 499.313110,127.697304 504.259827,123.817574 
	C507.512604,121.266365 512.528992,119.019516 513.368774,115.763008 
	C514.862976,109.968765 513.788635,103.512161 513.788635,96.232483 
	C496.159973,109.874664 479.586548,122.700218 462.529877,135.899765 
	C479.821991,149.248749 496.474548,162.104004 514.026245,175.653381 
	C514.026245,168.775024 514.218994,163.283661 513.898438,157.822418 
	C513.812134,156.352859 512.165527,154.974884 510.637024,153.082962 
M935.529297,93.011642 
	C947.029175,84.166176 958.529114,75.320709 970.438232,66.160484 
	C953.184692,52.803295 936.607910,39.970036 918.964905,26.311325 
	C918.964905,32.608017 918.704895,37.703304 919.094849,42.748375 
	C919.247498,44.724014 920.385376,47.152573 921.884705,48.405216 
	C929.088806,54.424015 936.569763,60.111374 944.295959,66.186516 
	C936.994751,71.834892 930.156738,77.050339 923.418457,82.391747 
	C921.785522,83.686165 919.369690,85.298500 919.226746,86.932053 
	C918.715576,92.772728 919.026672,98.685356 919.026672,105.792084 
	C925.097290,101.119896 930.049683,97.308350 935.529297,93.011642 
M45.095356,95.560959 
	C57.758774,85.849518 70.422188,76.138084 83.455139,66.143250 
	C66.132072,52.763668 49.559341,39.963612 31.962296,26.372421 
	C31.962296,32.922749 31.728804,38.032436 32.086529,43.100395 
	C32.215038,44.921017 33.339317,47.158440 34.742325,48.320232 
	C41.978241,54.312099 49.452202,60.016499 57.317307,66.193642 
	C51.813320,70.412079 46.687679,74.253845 41.662643,78.222984 
	C38.423962,80.781143 33.433475,83.036629 32.593540,86.295242 
	C31.104389,92.072540 32.175762,98.509827 32.175762,105.760574 
	C37.023380,101.940659 40.783249,98.977890 45.095356,95.560959 
M202.524277,108.013680 
	C190.694229,117.211838 178.864197,126.409996 166.618271,135.931534 
	C183.850525,149.221359 200.484238,162.049591 218.038101,175.587448 
	C218.038101,170.823364 217.702957,167.628342 218.107971,164.530075 
	C218.947388,158.108795 216.775574,153.834122 211.150665,150.236816 
	C204.708832,146.117096 199.039490,140.789444 192.742447,135.752991 
	C198.276978,131.506348 203.317078,127.757042 208.219940,123.836151 
	C211.554382,121.169563 216.549133,118.778267 217.504425,115.346169 
	C219.061401,109.752426 217.924759,103.408943 217.924759,96.332848 
	C212.264832,100.612648 207.670486,104.086716 202.524277,108.013680 
M206.095261,44.442493 
	C198.719238,38.686420 191.343201,32.930344 182.956284,26.385401 
	C182.956284,29.761330 182.956467,31.690834 182.956253,33.620338 
	C182.954788,47.021606 182.992844,46.969925 193.791824,54.928913 
	C198.623154,58.489677 203.266907,62.304962 208.285629,66.231506 
	C202.638290,70.553993 197.606781,74.318306 192.675858,78.210075 
	C189.435745,80.767357 184.437729,83.018524 183.599152,86.275116 
	C182.109543,92.060028 183.180878,98.504379 183.180878,105.728462 
	C200.807907,92.087967 217.370331,79.271294 234.387894,66.102417 
	C224.778793,58.723537 215.737396,51.780609 206.095261,44.442493 
M713.687195,97.739441 
	C712.703857,98.076134 711.545898,98.184822 710.763611,98.784004 
	C700.375305,106.740280 690.042603,114.769012 679.690002,122.771873 
	C674.135315,127.065819 668.569153,131.344864 662.632935,135.919815 
	C679.893616,149.218140 696.516907,162.025406 714.046509,175.530914 
	C714.046509,171.770630 713.699829,169.549866 714.106506,167.476883 
	C715.878906,158.441956 711.997559,152.573334 704.515869,147.897964 
	C699.018066,144.462326 694.144836,140.027191 688.640198,135.764023 
	C695.754578,130.369904 702.179504,125.435707 708.675964,120.597649 
	C712.278442,117.914810 714.998596,115.110710 714.159668,109.933090 
	C713.555176,106.202194 713.999634,102.301331 713.687195,97.739441 
z"/>
<path fill="#D9D9D9" opacity="1.000000" stroke="none" 
	d="
M1001.000000,81.531342 
	C996.533936,84.966621 991.954956,87.778580 987.628662,90.936676 
	C981.386841,95.493134 975.328369,100.300903 968.055664,105.871620 
	C968.055664,98.871475 967.641357,93.112007 968.281189,87.472115 
	C968.504028,85.508034 971.126099,83.581635 973.006653,82.082489 
	C979.585693,76.837906 986.319336,71.787346 993.601501,66.196938 
	C987.025085,61.046768 981.258850,55.840267 974.810547,51.694763 
	C969.428406,48.234653 966.958557,44.277950 967.898376,37.885464 
	C968.393066,34.520790 967.985657,31.023489 967.985657,26.345644 
	C979.413391,35.041348 989.859497,42.990082 1000.652771,50.969406 
	C1001.000000,61.020893 1001.000000,71.041786 1001.000000,81.531342 
z"/>
<path fill="#D9D9D9" opacity="1.000000" stroke="none" 
	d="
M1001.000000,167.531586 
	C995.010010,163.675079 988.950806,159.442261 983.046997,155.002747 
	C975.002502,148.953461 967.076538,142.746521 958.011902,135.769897 
	C972.472778,124.915016 986.383545,114.473022 1000.647156,104.015518 
	C1001.000000,110.354401 1001.000000,116.708794 1000.647400,123.548378 
	C995.073303,127.839348 989.851746,131.645126 983.815857,136.044495 
	C990.298767,140.554871 995.649353,144.277451 1001.000000,148.000015 
	C1001.000000,154.354401 1001.000000,160.708786 1001.000000,167.531586 
z"/>
<path fill="#D9D9D9" opacity="1.000000" stroke="none" 
	d="
M1.000000,42.468403 
	C2.587262,42.729443 4.362086,43.207630 5.731022,44.229538 
	C13.956214,50.369617 22.101738,56.616974 30.234316,62.879864 
	C31.251633,63.663300 32.035568,64.749794 33.735088,66.552185 
	C22.871546,74.821915 12.284242,82.881363 1.348469,90.970406 
	C1.000000,84.645599 1.000000,78.291206 1.349282,71.437050 
	C3.761919,69.486656 5.825273,68.036018 8.959160,65.832741 
	C5.668967,64.248344 3.334483,63.124172 1.000000,62.000000 
	C1.000000,55.645603 1.000000,49.291203 1.000000,42.468403 
z"/>
<path fill="#DADADA" opacity="1.000000" stroke="none" 
	d="
M1.000001,113.468399 
	C7.642021,108.196884 14.276998,103.383965 20.934557,98.602486 
	C21.812756,97.971764 22.806244,97.501556 24.851824,96.316666 
	C24.851824,103.075623 24.878317,108.920456 24.810266,114.764198 
	C24.803564,115.339783 24.356607,116.093971 23.879164,116.452805 
	C16.512600,121.989227 9.107125,127.473869 1.355338,132.985260 
	C1.000000,126.645599 1.000000,120.291206 1.000001,113.468399 
z"/>
<path fill="#DADADA" opacity="1.000000" stroke="none" 
	d="
M1.000002,139.468414 
	C5.326891,141.838104 9.663718,144.661285 13.970410,147.529724 
	C14.650494,147.982697 15.099334,148.857620 15.815431,149.170624 
	C27.992931,154.493378 25.002052,164.840088 24.586779,175.485947 
	C16.490971,169.657028 9.101759,164.336868 1.356274,159.008347 
	C1.000000,152.645599 1.000000,146.291214 1.000002,139.468414 
z"/>
<path fill="#FFFFFF" opacity="1.000000" stroke="none" 
	d="
M1001.000000,147.531387 
	C995.649353,144.277451 990.298767,140.554871 983.815857,136.044495 
	C989.851746,131.645126 995.073303,127.839348 1000.647400,124.016785 
	C1001.000000,131.687576 1001.000000,139.375168 1001.000000,147.531387 
z"/>
<path fill="#FFFFFF" opacity="1.000000" stroke="none" 
	d="
M1.000000,62.449982 
	C3.334483,63.124172 5.668967,64.248344 8.959160,65.832741 
	C5.825273,68.036018 3.761919,69.486656 1.349282,70.968643 
	C1.000000,68.299988 1.000000,65.599976 1.000000,62.449982 
z"/>
<path fill="#DADADA" opacity="1.000000" stroke="none" 
	d="
M247.603394,160.359451 
	C236.943344,152.219818 226.583572,144.278030 215.670151,135.911850 
	C232.864151,122.615555 249.637497,109.644554 267.712463,95.666992 
	C267.712463,103.180229 269.203369,109.744194 267.236481,115.018753 
	C265.688049,119.171150 259.920624,121.789024 255.945831,124.987419 
	C251.603500,128.481537 247.167572,131.859344 242.109711,135.804840 
	C248.069687,140.586411 252.782776,145.838348 258.654419,148.769440 
	C270.549438,154.707321 268.077911,164.632980 267.617523,175.992599 
	C260.449860,170.380554 254.176743,165.468933 247.603394,160.359451 
z"/>
<path fill="#DADADA" opacity="1.000000" stroke="none" 
	d="
M152.207291,60.777443 
	C146.648331,56.542355 141.191071,52.733395 136.174698,48.412571 
	C134.538528,47.003254 133.383774,44.322369 133.176483,42.113461 
	C132.729401,37.349445 133.039032,32.514420 133.039032,25.864912 
	C150.825287,39.567616 167.469833,52.390724 185.197922,66.048615 
	C167.840729,79.528488 151.221893,92.434937 133.289322,106.361656 
	C133.289322,98.809052 131.793579,92.233673 133.766800,86.955009 
	C135.320435,82.798737 141.117264,80.199593 145.090729,76.984688 
	C149.427048,73.476204 153.834091,70.055122 158.747345,66.171440 
	C156.218307,64.086327 154.349365,62.545433 152.207291,60.777443 
z"/>
<path fill="#DADADA" opacity="1.000000" stroke="none" 
	d="
M904.307495,101.255424 
	C906.575012,99.622429 908.576355,98.236328 911.720154,96.058952 
	C911.720154,103.168633 913.213562,109.738556 911.243530,115.015488 
	C909.691284,119.173561 903.908813,121.784378 899.937500,124.998802 
	C895.600708,128.508957 891.186035,131.922928 886.108215,135.928757 
	C893.804565,141.952957 900.669556,147.608429 907.856873,152.819336 
	C910.915771,155.037079 912.243225,157.408798 912.022583,161.134750 
	C911.761169,165.550095 911.961121,169.992783 911.961121,176.170914 
	C894.067871,162.362473 877.420776,149.515701 859.843018,135.950714 
	C875.125549,124.039406 889.583435,112.770859 904.307495,101.255424 
z"/>
<path fill="#DADADA" opacity="1.000000" stroke="none" 
	d="
M721.378418,145.632080 
	C717.347595,142.483124 713.615601,139.532516 708.936646,135.833176 
	C726.392639,122.310562 743.163330,109.318787 760.938049,95.549248 
	C760.938049,102.563553 761.108215,108.303749 760.811523,114.019707 
	C760.742310,115.353264 759.318604,116.895195 758.123718,117.845123 
	C751.768188,122.897758 745.293884,127.801292 738.842896,132.733109 
	C737.784180,133.542526 736.636841,134.235992 734.764709,135.500107 
	C739.845520,139.533615 743.906311,142.795288 748.009399,146.002884 
	C751.403687,148.656418 754.965210,151.111206 758.211121,153.931870 
	C759.468262,155.024292 760.738647,156.839401 760.833862,158.396759 
	C761.156738,163.679184 760.957092,168.993561 760.957092,176.087738 
	C747.131470,165.437836 734.404358,155.634125 721.378418,145.632080 
z"/>
<path fill="#D9D9D9" opacity="1.000000" stroke="none" 
	d="
M534.825684,117.793869 
	C544.401794,110.477356 553.702881,103.387672 563.892456,95.620766 
	C563.892456,102.490334 564.528625,108.506294 563.593323,114.267113 
	C563.194336,116.724564 559.682495,118.860130 557.291016,120.774498 
	C551.231812,125.624878 545.006226,130.267319 537.948303,135.682800 
	C542.878296,139.679947 547.293640,143.268372 551.721191,146.841614 
	C552.494629,147.465836 553.247009,148.183258 554.131775,148.592392 
	C565.947815,154.056656 564.672485,164.202042 563.379822,175.759232 
	C545.910950,162.290939 529.096313,149.327011 511.760529,135.961349 
	C519.578003,129.807358 527.064331,123.914032 534.825684,117.793869 
z"/>
<path fill="#D9D9D9" opacity="1.000000" stroke="none" 
	d="
M409.734314,122.735458 
	C404.247253,127.009323 399.023254,131.038986 392.923767,135.743973 
	C397.907349,139.746613 402.353088,143.323364 406.807526,146.889130 
	C407.584015,147.510681 408.320435,148.255737 409.205383,148.657135 
	C421.186462,154.091766 419.401123,164.366470 418.507568,175.871399 
	C400.868561,162.264160 384.051300,149.290863 366.705505,135.909851 
	C384.034637,122.488937 400.969086,109.373703 418.858459,95.518898 
	C418.858459,102.571983 419.845276,108.871597 418.465515,114.601326 
	C417.712219,117.729622 412.951080,119.892830 409.734314,122.735458 
z"/>
<path fill="#DADADA" opacity="1.000000" stroke="none" 
	d="
M403.278198,85.256973 
	C394.547852,92.083290 386.079285,98.664764 377.610718,105.246246 
	C377.111725,105.121445 376.612732,104.996643 376.113739,104.871841 
	C376.113739,99.040970 375.520050,93.117928 376.404083,87.424324 
	C376.760864,85.126244 380.218536,83.166809 382.493195,81.336845 
	C388.655792,76.379021 394.940613,71.573105 401.859192,66.174576 
	C397.079773,62.403992 393.067291,59.045837 388.859100,55.954067 
	C375.313629,46.002193 375.282898,46.039936 376.057434,29.476637 
	C376.086823,28.848034 376.278229,28.227005 376.636047,26.298717 
	C393.883453,39.616310 410.522858,52.464443 428.184937,66.102211 
	C419.452484,72.802567 411.496216,78.907349 403.278198,85.256973 
z"/>
<path fill="#D9D9D9" opacity="1.000000" stroke="none" 
	d="
M881.719604,76.739304 
	C886.058533,73.198685 890.135498,69.902733 894.890076,66.058983 
	C888.941345,61.336788 883.658325,57.181038 878.416565,52.973934 
	C868.485657,45.003296 867.071045,40.869648 869.872864,26.456383 
	C887.026550,39.704559 903.760986,52.628910 921.244934,66.132126 
	C903.711975,79.685883 887.101196,92.526756 870.490356,105.367622 
	C870.035400,105.131165 869.580383,104.894699 869.125366,104.658234 
	C869.125366,98.931847 868.703674,93.156418 869.360718,87.506447 
	C869.581970,85.603630 872.427551,83.882210 874.281006,82.324631 
	C876.559875,80.409485 879.055725,78.752541 881.719604,76.739304 
z"/>
<path fill="#DADADA" opacity="1.000000" stroke="none" 
	d="
M527.216431,45.047256 
	C527.102051,39.011692 527.102051,33.376205 527.102051,26.012714 
	C544.751587,39.607651 561.386658,52.421165 579.071899,66.043579 
	C561.615234,79.602493 544.795288,92.666885 527.041687,106.456406 
	C527.041687,99.489059 526.840820,93.876083 527.176819,88.295433 
	C527.265686,86.818687 528.743958,85.111862 530.036743,84.074493 
	C536.364502,78.996918 542.862000,74.131561 549.254150,69.133133 
	C550.263977,68.343475 551.041687,67.257072 552.223206,65.989906 
	C543.782959,59.024540 535.556946,52.235939 527.216431,45.047256 
z"/>
<path fill="#DADADA" opacity="1.000000" stroke="none" 
	d="
M694.606445,63.350204 
	C688.097168,58.461792 681.676819,54.008121 675.786560,48.938576 
	C673.833435,47.257622 672.528137,44.083969 672.190002,41.431709 
	C671.612000,36.898258 672.030518,32.237747 672.030518,25.926163 
	C689.845398,39.668758 706.489807,52.508423 724.064697,66.065842 
	C706.572937,79.647232 689.819397,92.655472 672.057617,106.446510 
	C672.057617,99.446960 671.923523,93.713936 672.163452,87.996613 
	C672.215454,86.759346 673.364685,85.265900 674.429810,84.422997 
	C680.794373,79.386429 687.320007,74.553909 693.706360,69.544220 
	C695.676819,67.998550 698.745728,66.378349 694.606445,63.350204 
z"/>
<path fill="#DADADA" opacity="1.000000" stroke="none" 
	d="
M850.799133,84.782990 
	C841.671753,91.882294 832.820435,98.754700 823.034607,106.352745 
	C823.034607,99.543533 822.837891,93.961388 823.165161,88.410126 
	C823.253296,86.915924 824.650879,85.165329 825.930786,84.130089 
	C833.238953,78.219017 840.693237,72.488564 848.773438,66.168350 
	C843.198975,61.741024 838.637756,56.995239 833.126099,53.996128 
	C824.162598,49.118717 821.553528,42.050583 822.990906,32.613266 
	C823.234375,31.014828 823.025208,29.347448 823.025208,25.992332 
	C840.749207,39.645065 857.390259,52.463593 875.014526,66.039444 
	C866.620605,72.532013 858.847900,78.544052 850.799133,84.782990 
z"/>
<path fill="#DADADA" opacity="1.000000" stroke="none" 
	d="
M73.977615,166.914047 
	C73.977585,169.687897 73.977585,171.991135 73.977585,176.011719 
	C56.238785,162.343674 39.585724,149.512192 21.958241,135.929901 
	C39.425621,122.409439 56.217499,109.411835 73.946770,95.688660 
	C73.946770,102.595390 74.117996,108.335289 73.819260,114.050621 
	C73.749710,115.381195 72.308800,116.913940 71.111176,117.865921 
	C64.752045,122.920799 58.278484,127.832191 51.820473,132.761734 
	C50.760750,133.570648 49.581287,134.222702 47.673939,135.452072 
	C54.058220,140.481979 59.328995,144.635315 64.602570,148.785110 
	C64.731621,148.886658 64.890533,148.951065 65.037643,149.028748 
	C72.080132,152.748245 75.626038,158.262482 73.977615,166.914047 
z"/>
<path fill="#DADADA" opacity="1.000000" stroke="none" 
	d="
M497.802368,70.786484 
	C499.729004,69.241173 501.378967,67.923569 503.629211,66.126587 
	C496.539886,60.555458 490.169617,55.077442 483.295990,50.327873 
	C479.284485,47.555984 477.400146,44.621296 477.921387,39.715916 
	C478.349762,35.684177 478.008759,31.570683 478.008759,26.055202 
	C495.766998,39.754681 512.347778,52.545837 529.899475,66.085983 
	C512.599731,79.484749 495.812744,92.486336 478.064575,106.232384 
	C478.064575,99.328217 477.808502,93.454170 478.234039,87.629929 
	C478.348907,86.057564 480.325531,84.382019 481.800812,83.191551 
	C486.959015,79.029060 492.271667,75.057983 497.802368,70.786484 
z"/>
<path fill="#DADADA" opacity="1.000000" stroke="none" 
	d="
M625.701782,83.898514 
	C633.424377,77.966850 640.857666,72.281448 648.812561,66.197075 
	C641.339294,60.373482 634.877930,54.962582 628.007874,50.133163 
	C624.200562,47.456749 622.465332,44.542740 622.925415,39.870586 
	C623.325439,35.808231 623.008667,31.675291 623.008667,26.063965 
	C640.783752,39.777897 657.435608,52.625259 674.917908,66.113312 
	C657.452332,79.613411 640.658508,92.594284 623.019592,106.228355 
	C623.019592,99.485184 622.861694,93.885025 623.128967,88.305229 
	C623.196960,86.885208 624.614807,85.529846 625.701782,83.898514 
z"/>
<path fill="#DADADA" opacity="1.000000" stroke="none" 
	d="
M359.278381,81.258011 
	C348.694183,89.504898 338.371704,97.506874 327.070557,106.267525 
	C327.070557,99.346321 326.894257,93.490128 327.207886,87.660286 
	C327.276978,86.375801 328.902161,84.955780 330.120880,83.989204 
	C336.348236,79.050392 342.668579,74.228439 348.978485,69.394417 
	C350.149841,68.497055 351.422272,67.731636 353.225555,66.515961 
	C345.431610,60.429661 338.975525,55.048641 332.147644,50.190113 
	C328.364655,47.498222 326.497192,44.551510 326.938293,39.829262 
	C327.317078,35.774361 327.016785,31.656019 327.016785,26.031933 
	C344.815857,39.760551 361.463623,52.601162 378.937195,66.078728 
	C372.015564,71.407883 365.777832,76.210487 359.278381,81.258011 
z"/>
<path fill="#DADADA" opacity="1.000000" stroke="none" 
	d="
M944.715698,143.264160 
	C949.155762,146.767105 953.543030,149.798996 957.415283,153.386749 
	C959.138428,154.983444 960.570557,157.618454 960.823730,159.926010 
	C961.343689,164.664642 960.979919,169.500275 960.979919,175.996185 
	C943.267090,162.338516 926.630066,149.510376 909.034363,135.943039 
	C926.401367,122.475639 943.171936,109.470726 960.922791,95.705688 
	C960.922791,102.674080 961.064697,108.535286 960.804260,114.378563 
	C960.751526,115.563301 959.372559,116.925072 958.276611,117.788307 
	C951.902893,122.808418 945.411377,127.678627 939.011047,132.665482 
	C937.882141,133.545105 936.996033,134.736282 935.537354,136.266586 
	C938.741028,138.693039 941.597168,140.856216 944.715698,143.264160 
z"/>
<path fill="#DADADA" opacity="1.000000" stroke="none" 
	d="
M796.597961,145.372223 
	C797.756775,146.355072 798.578735,147.186127 799.480652,147.918762 
	C810.815308,157.126373 811.802124,159.716080 809.320923,175.433792 
	C792.257080,162.284943 775.610657,149.457718 758.051086,135.926895 
	C775.460754,122.455788 792.244934,109.468651 809.963074,95.758858 
	C809.963074,102.558617 810.254272,108.295288 809.787964,113.969696 
	C809.645691,115.700729 807.678711,117.585709 806.102661,118.842621 
	C799.130310,124.403236 791.995850,129.760712 784.089966,135.828842 
	C788.580322,139.266342 792.439331,142.220505 796.597961,145.372223 
z"/>
<path fill="#D9D9D9" opacity="1.000000" stroke="none" 
	d="
M814.006348,57.001259 
	C817.822693,59.929745 821.323669,62.693039 825.732910,66.173241 
	C808.567444,79.469521 791.785583,92.468681 774.057739,106.200600 
	C774.057739,99.327538 773.801758,93.453186 774.227051,87.628571 
	C774.341858,86.056427 776.310425,84.368393 777.791565,83.190804 
	C784.146912,78.138153 790.649780,73.271370 797.063293,68.291039 
	C797.804443,67.715538 798.323853,66.854485 799.273315,65.742615 
	C792.236694,60.307827 785.534241,54.970879 778.648132,49.882267 
	C775.356628,47.449902 773.364807,44.897095 773.894897,40.429420 
	C774.395569,36.209484 774.002441,31.883495 774.002441,26.011908 
	C787.972473,36.861790 800.831665,46.848927 814.006348,57.001259 
z"/>
<path fill="#D9D9D9" opacity="1.000000" stroke="none" 
	d="
M106.006058,128.996796 
	C103.150291,131.249222 100.609100,133.335861 97.444412,135.934479 
	C104.408981,141.412460 110.788139,146.852692 117.622917,151.642853 
	C121.545296,154.391846 123.688316,157.203568 123.095810,162.200455 
	C122.617653,166.233032 122.998924,170.367523 122.998924,175.886917 
	C105.310074,162.243958 88.738274,149.462524 71.197983,135.934143 
	C88.511871,122.504982 105.349640,109.445122 122.993134,95.760323 
	C122.993134,102.407364 123.260521,107.877380 122.843483,113.294708 
	C122.703522,115.112823 121.161346,117.197754 119.669479,118.465981 
	C115.381538,122.111168 110.791786,125.401329 106.006058,128.996796 
z"/>
<path fill="#D9D9D9" opacity="1.000000" stroke="none" 
	d="
M279.559875,84.956039 
	C287.614319,78.618950 295.388153,72.556442 303.643860,66.118149 
	C296.844727,60.840191 290.926331,55.811508 284.555420,51.442749 
	C279.766022,48.158478 276.936859,44.590679 277.900452,38.423092 
	C278.450653,34.901402 278.000000,31.223337 278.000000,26.159100 
	C295.703369,39.814552 312.353302,52.657417 329.765106,66.087982 
	C312.396057,79.533211 295.613922,92.524101 278.831787,105.514999 
	C278.377197,105.351883 277.922638,105.188766 277.468079,105.025650 
	C278.071777,98.427307 278.675507,91.828957 279.559875,84.956039 
z"/>
<path fill="#D9D9D9" opacity="1.000000" stroke="none" 
	d="
M455.385803,46.641190 
	C463.783539,53.076927 471.880951,59.314125 480.693207,66.101967 
	C463.368011,79.515594 446.586548,92.508240 429.008514,106.117622 
	C429.008514,99.499573 428.727478,93.888672 429.171600,88.335762 
	C429.313660,86.559143 431.069092,84.557503 432.611938,83.307655 
	C439.651550,77.604912 446.878143,72.133034 454.573456,66.162361 
	C448.087006,61.086517 442.453613,55.945103 436.108093,51.928677 
	C430.312927,48.260586 427.996429,43.820969 428.924225,37.158195 
	C429.354065,34.071438 428.997589,30.875185 428.997589,26.161663 
	C438.338104,33.423069 446.711792,39.932861 455.385803,46.641190 
z"/>
<path fill="#D9D9D9" opacity="1.000000" stroke="none" 
	d="
M580.716736,31.253546 
	C595.622070,42.841049 610.262207,54.183605 625.658569,66.112030 
	C608.418945,79.469559 591.640808,92.469490 574.027893,106.116280 
	C574.027893,99.400299 573.734619,93.645897 574.205383,87.954681 
	C574.347839,86.232307 576.362061,84.383850 577.936707,83.109337 
	C584.862366,77.503944 591.940918,72.087425 599.558899,66.137886 
	C593.287170,61.246559 587.757446,56.279705 581.586853,52.308933 
	C575.632141,48.477127 572.815491,43.888371 573.919495,36.773617 
	C574.387085,33.760357 573.997559,30.614098 573.997559,26.539587 
	C576.766846,28.457142 578.609192,29.732868 580.716736,31.253546 
z"/>
<path fill="#D9D9D9" opacity="1.000000" stroke="none" 
	d="
M858.264099,155.356659 
	C858.562683,161.870621 858.562683,168.115021 858.562683,175.514236 
	C841.315674,162.188889 824.679565,149.335571 807.266724,135.882111 
	C824.592773,122.485847 841.381226,109.505287 858.991821,95.889030 
	C858.991821,102.451622 859.317871,108.053474 858.811890,113.579147 
	C858.638794,115.469597 856.681519,117.540024 855.021057,118.891106 
	C848.115723,124.509575 841.012634,129.885040 833.369629,135.825714 
	C841.926392,142.526627 849.945923,148.806870 858.264099,155.356659 
z"/>
<path fill="#D9D9D9" opacity="1.000000" stroke="none" 
	d="
M605.825562,168.205261 
	C592.109802,157.487000 578.670044,146.996262 564.400879,135.858093 
	C581.499756,122.598717 598.274292,109.590881 615.947998,95.885780 
	C615.947998,102.659561 616.202820,108.531616 615.779663,114.354385 
	C615.665100,115.930145 613.715088,117.628883 612.236572,118.804703 
	C605.884216,123.856606 599.382080,128.719803 592.968994,133.696198 
	C592.229858,134.269760 591.706299,135.121124 590.764709,136.212296 
	C597.918701,141.748993 604.768799,147.157196 611.744202,152.398636 
	C614.706360,154.624405 616.505798,156.990173 616.101746,161.049515 
	C615.663513,165.451614 616.002441,169.931076 616.002441,175.493454 
	C612.121338,172.725693 609.111511,170.579224 605.825562,168.205261 
z"/>
<path fill="#D9D9D9" opacity="1.000000" stroke="none" 
	d="
M83.679489,103.849762 
	C82.587524,103.588478 81.117271,103.126785 81.098488,102.612114 
	C80.922684,97.795067 80.506691,92.895752 81.213036,88.177872 
	C81.541603,85.983269 83.893852,83.771645 85.838486,82.197365 
	C92.384804,76.897774 99.160004,71.880943 106.509583,66.248680 
	C98.844330,60.250690 91.739563,54.415703 84.311920,49.025627 
	C81.638481,47.085567 80.796021,45.064671 80.928185,41.977058 
	C81.132263,37.209194 80.981964,32.426163 80.981964,26.245968 
	C98.622612,39.866703 115.261078,52.713638 132.658539,66.146606 
	C116.113373,78.883484 100.043953,91.254128 83.679489,103.849762 
z"/>
<path fill="#D9D9D9" opacity="1.000000" stroke="none" 
	d="
M731.226807,81.257339 
	C737.697144,76.157997 743.903992,71.308792 750.567871,66.102539 
	C742.502441,59.862537 735.031555,54.160561 727.677246,48.312042 
	C726.517212,47.389526 725.193726,45.839130 725.127258,44.519524 
	C724.844849,38.913101 725.007324,33.284260 725.007324,26.246862 
	C742.632751,39.840832 759.282104,52.682014 776.685547,66.104790 
	C759.526917,79.369240 742.882812,92.235954 726.238708,105.102669 
	C725.772278,104.833359 725.305847,104.564049 724.839355,104.294739 
	C726.734619,96.666046 720.493164,87.202400 731.226807,81.257339 
z"/>
<path fill="#D9D9D9" opacity="1.000000" stroke="none" 
	d="
M320.004883,106.024078 
	C321.823669,114.326607 317.240784,118.700981 311.560699,122.728981 
	C305.909271,126.736679 300.516449,131.109024 294.348602,135.827652 
	C300.687042,140.758682 306.181702,145.806854 312.412994,149.665543 
	C318.767334,153.600464 321.109680,158.565704 320.072784,165.736313 
	C319.659424,168.595047 320.004883,171.563538 320.004883,175.780853 
	C302.331940,162.141251 285.747101,149.341385 268.334839,135.902969 
	C285.403778,122.692780 302.054810,109.806023 320.004883,95.913887 
	C320.004883,100.107910 320.004883,102.828239 320.004883,106.024078 
z"/>
<path fill="#D9D9D9" opacity="1.000000" stroke="none" 
	d="
M152.015778,109.009003 
	C157.454834,104.917267 162.578461,100.991463 169.018066,96.057343 
	C169.018066,101.810944 168.616074,106.370651 169.118713,110.828354 
	C169.762802,116.540741 165.732468,118.622864 162.197098,121.323219 
	C156.397232,125.753242 150.649597,130.251694 144.892944,134.737976 
	C144.647537,134.929214 144.532623,135.287903 144.001617,136.136154 
	C150.132584,140.970734 156.109055,146.166779 162.589493,150.631287 
	C167.256012,153.846146 169.890717,157.330795 169.108566,163.251892 
	C168.621719,166.937469 169.018127,170.739716 169.018127,175.768158 
	C151.338684,162.112305 134.753067,149.301361 117.447189,135.934067 
	C129.115875,126.818298 140.408127,117.996613 152.015778,109.009003 
z"/>
<path fill="#D9D9D9" opacity="1.000000" stroke="none" 
	d="
M456.190491,148.794342 
	C463.802612,152.898544 466.449371,158.932846 465.067078,167.046005 
	C464.662506,169.420639 465.004883,171.922546 465.004883,175.770462 
	C447.342255,162.141449 430.696381,149.296997 413.321350,135.889893 
	C430.489899,122.618210 447.129425,109.755501 464.926025,95.998322 
	C464.926025,103.213654 465.916687,109.193680 464.553497,114.577766 
	C463.739380,117.793259 459.390991,120.266037 456.355621,122.733543 
	C450.998535,127.088448 445.430664,131.184097 439.302979,135.885483 
	C445.240784,140.418594 450.577301,144.492661 456.190491,148.794342 
z"/>
<path fill="#D9D9D9" opacity="1.000000" stroke="none" 
	d="
M231.977158,43.522003 
	C231.976013,37.947964 231.976013,32.822048 231.976013,26.296375 
	C249.576721,39.888542 266.223175,52.743793 283.558777,66.131233 
	C266.484283,79.329773 249.921906,92.132446 231.975739,106.004784 
	C231.975739,100.371567 232.362976,96.001717 231.878922,91.730606 
	C231.256790,86.241310 234.490173,83.652596 238.343674,81.025108 
	C241.623169,78.788971 244.647766,76.177834 247.774048,73.718491 
	C250.758331,71.370850 253.728256,69.004982 257.374390,66.116417 
	C250.609741,60.868069 244.038345,55.979450 237.734741,50.766953 
	C235.482513,48.904552 233.878296,46.258492 231.977158,43.522003 
z"/>
<path fill="#D9D9D9" opacity="1.000000" stroke="none" 
	d="
M661.242676,119.160294 
	C654.009644,124.719505 647.062134,130.041458 639.526917,135.813599 
	C647.398865,141.966415 654.874939,147.650314 662.122742,153.611618 
	C663.542725,154.779495 664.765991,156.972870 664.893433,158.777023 
	C665.261169,163.987122 665.023438,169.239975 665.023438,175.722809 
	C647.361938,162.073700 630.782227,149.260635 613.496033,135.901596 
	C630.576111,122.677498 647.201111,109.805740 664.937012,96.073898 
	C664.937012,103.245796 665.163757,109.000427 664.781067,114.714249 
	C664.682678,116.183212 662.664429,117.523590 661.242676,119.160294 
z"/>
<path fill="#D9D9D9" opacity="1.000000" stroke="none" 
	d="
M349.597870,140.372620 
	C355.498413,144.996170 361.140991,149.369522 366.660431,153.893097 
	C367.698059,154.743515 368.861328,156.167419 368.912109,157.371140 
	C369.149353,163.000092 369.017395,168.644623 369.017395,175.658691 
	C351.448730,162.090622 334.792603,149.227341 317.523987,135.891006 
	C334.612305,122.675842 351.188568,109.856621 368.917603,96.145935 
	C368.917603,103.403969 370.057556,109.757736 368.495972,115.358246 
	C367.538086,118.793678 362.530060,121.186104 359.183044,123.848679 
	C354.264740,127.761276 349.205505,131.496719 343.589752,135.777634 
	C345.747070,137.439545 347.522186,138.806992 349.597870,140.372620 
z"/>
<path fill="#D9D9D9" opacity="1.000000" stroke="none" 
	d="
M510.936096,153.318909 
	C512.165527,154.974884 513.812134,156.352859 513.898438,157.822418 
	C514.218994,163.283661 514.026245,168.775024 514.026245,175.653381 
	C496.474548,162.104004 479.821991,149.248749 462.529877,135.899765 
	C479.586548,122.700218 496.159973,109.874664 513.788635,96.232483 
	C513.788635,103.512161 514.862976,109.968765 513.368774,115.763008 
	C512.528992,119.019516 507.512604,121.266365 504.259827,123.817574 
	C499.313110,127.697304 494.263885,131.446304 488.616852,135.738327 
	C496.206848,141.716736 503.421936,147.399857 510.936096,153.318909 
z"/>
<path fill="#D9D9D9" opacity="1.000000" stroke="none" 
	d="
M935.265625,93.254227 
	C930.049683,97.308350 925.097290,101.119896 919.026672,105.792084 
	C919.026672,98.685356 918.715576,92.772728 919.226746,86.932053 
	C919.369690,85.298500 921.785522,83.686165 923.418457,82.391747 
	C930.156738,77.050339 936.994751,71.834892 944.295959,66.186516 
	C936.569763,60.111374 929.088806,54.424015 921.884705,48.405216 
	C920.385376,47.152573 919.247498,44.724014 919.094849,42.748375 
	C918.704895,37.703304 918.964905,32.608017 918.964905,26.311325 
	C936.607910,39.970036 953.184692,52.803295 970.438232,66.160484 
	C958.529114,75.320709 947.029175,84.166176 935.265625,93.254227 
z"/>
<path fill="#D9D9D9" opacity="1.000000" stroke="none" 
	d="
M44.819237,95.788040 
	C40.783249,98.977890 37.023380,101.940659 32.175762,105.760574 
	C32.175762,98.509827 31.104389,92.072540 32.593540,86.295242 
	C33.433475,83.036629 38.423962,80.781143 41.662643,78.222984 
	C46.687679,74.253845 51.813320,70.412079 57.317307,66.193642 
	C49.452202,60.016499 41.978241,54.312099 34.742325,48.320232 
	C33.339317,47.158440 32.215038,44.921017 32.086529,43.100395 
	C31.728804,38.032436 31.962296,32.922749 31.962296,26.372421 
	C49.559341,39.963612 66.132072,52.763668 83.455139,66.143250 
	C70.422188,76.138084 57.758774,85.849518 44.819237,95.788040 
z"/>
<path fill="#D9D9D9" opacity="1.000000" stroke="none" 
	d="
M202.800201,107.787231 
	C207.670486,104.086716 212.264832,100.612648 217.924759,96.332848 
	C217.924759,103.408943 219.061401,109.752426 217.504425,115.346169 
	C216.549133,118.778267 211.554382,121.169563 208.219940,123.836151 
	C203.317078,127.757042 198.276978,131.506348 192.742447,135.752991 
	C199.039490,140.789444 204.708832,146.117096 211.150665,150.236816 
	C216.775574,153.834122 218.947388,158.108795 218.107971,164.530075 
	C217.702957,167.628342 218.038101,170.823364 218.038101,175.587448 
	C200.484238,162.049591 183.850525,149.221359 166.618271,135.931534 
	C178.864197,126.409996 190.694229,117.211838 202.800201,107.787231 
z"/>
<path fill="#D9D9D9" opacity="1.000000" stroke="none" 
	d="
M206.395630,44.640087 
	C215.737396,51.780609 224.778793,58.723537 234.387894,66.102417 
	C217.370331,79.271294 200.807907,92.087967 183.180878,105.728462 
	C183.180878,98.504379 182.109543,92.060028 183.599152,86.275116 
	C184.437729,83.018524 189.435745,80.767357 192.675858,78.210075 
	C197.606781,74.318306 202.638290,70.553993 208.285629,66.231506 
	C203.266907,62.304962 198.623154,58.489677 193.791824,54.928913 
	C182.992844,46.969925 182.954788,47.021606 182.956253,33.620338 
	C182.956467,31.690834 182.956284,29.761330 182.956284,26.385401 
	C191.343201,32.930344 198.719238,38.686420 206.395630,44.640087 
z"/>
<path fill="#D9D9D9" opacity="1.000000" stroke="none" 
	d="
M713.831665,98.107864 
	C713.999634,102.301331 713.555176,106.202194 714.159668,109.933090 
	C714.998596,115.110710 712.278442,117.914810 708.675964,120.597649 
	C702.179504,125.435707 695.754578,130.369904 688.640198,135.764023 
	C694.144836,140.027191 699.018066,144.462326 704.515869,147.897964 
	C711.997559,152.573334 715.878906,158.441956 714.106506,167.476883 
	C713.699829,169.549866 714.046509,171.770630 714.046509,175.530914 
	C696.516907,162.025406 679.893616,149.218140 662.632935,135.919815 
	C668.569153,131.344864 674.135315,127.065819 679.690002,122.771873 
	C690.042603,114.769012 700.375305,106.740280 710.763611,98.784004 
	C711.545898,98.184822 712.703857,98.076134 713.831665,98.107864 
z"/>
</svg>